# Blender 3.3.0
# www.blender.org
mtllib Rock.mtl
o Cube
v 0.609404 0.553116 -1.156653
v 1.000000 -0.706197 -1.072568
v -0.024758 0.617407 0.800676
v 0.614245 -0.851420 0.882270
v -1.091674 0.919362 -0.502654
v -1.077476 -0.534757 -0.988816
v -0.663985 0.967639 0.768911
v -1.354664 -0.562849 0.705439
vn 0.4720 0.8728 0.1243
vn -0.0869 0.0175 0.9961
vn -0.9760 0.2124 0.0481
vn -0.1112 -0.9915 -0.0673
vn 0.9306 0.3024 0.2061
vn -0.0468 -0.0810 -0.9956
vn -0.0580 -0.0152 0.9982
vn 0.1742 0.9800 -0.0958
vn 0.8770 0.3966 0.2711
vn -0.2849 0.3014 -0.9099
vt 0.000000 0.325008
vt 0.446605 0.512015
vt 0.391806 0.000000
vt 0.008155 0.478109
vt 0.680805 0.424118
vt 0.049325 0.701116
vt 0.388108 0.232739
vt 0.313431 0.865870
vt 0.777761 0.036452
vt 0.391806 0.444597
vt 0.719793 0.501835
vt 0.151671 0.000000
vt 0.391806 0.863610
vt 0.999154 0.424118
vt 0.445408 0.401275
vt 0.680805 0.825128
vt 0.680805 0.750588
vt 0.000000 0.568387
vt 0.391806 0.093081
vt 1.000000 0.750588
vt 0.777761 0.424118
vt 0.313431 0.478109
s 0
usemtl Material
f 1/1/1 7/19/1 3/7/1
f 3/6/2 8/22/2 4/8/2
f 8/20/3 7/17/3 5/11/3 6/14/3
f 6/15/4 2/3/4 4/9/4 8/21/4
f 1/1/5 4/10/5 2/4/5
f 6/16/6 1/2/6 2/5/6
f 3/6/7 7/18/7 8/22/7
f 1/1/8 5/12/8 7/19/8
f 1/1/9 3/7/9 4/10/9
f 6/16/10 5/13/10 1/2/10
